<svg id="visual" viewBox="0 0 900 600" width="900" height="600" xmlns="http://www.w3.org/2000/svg" xmlns:xlink="http://www.w3.org/1999/xlink" version="1.1"><rect x="0" y="0" width="900" height="600" fill="#001122"></rect><g fill="#715DF2"><path d="M28.9 16.7L28.9 74.4L-28.9 74.4L-28.9 16.7L-78.9 -12.2L-50 -62.2L0 -33.3L50 -62.2L78.9 -12.2Z" transform="translate(751 518)"></path><path d="M12.7 7.3L12.7 32.7L-12.7 32.7L-12.7 7.3L-34.7 -5.4L-22 -27.3L0 -14.6L22 -27.3L34.7 -5.4Z" transform="translate(392 231)"></path><path d="M25.9 15L25.9 66.8L-25.9 66.8L-25.9 15L-70.8 -10.9L-44.9 -55.8L0 -29.9L44.9 -55.8L70.8 -10.9Z" transform="translate(166 30)"></path><path d="M19.7 11.4L19.7 50.8L-19.7 50.8L-19.7 11.4L-53.8 -8.3L-34.1 -42.4L0 -22.7L34.1 -42.4L53.8 -8.3Z" transform="translate(130 275)"></path><path d="M22.9 13.2L22.9 59.1L-22.9 59.1L-22.9 13.2L-62.7 -9.7L-39.7 -49.4L0 -26.5L39.7 -49.4L62.7 -9.7Z" transform="translate(842 31)"></path><path d="M14 8.1L14 36.2L-14 36.2L-14 8.1L-38.3 -5.9L-24.3 -30.2L0 -16.2L24.3 -30.2L38.3 -5.9Z" transform="translate(41 568)"></path><path d="M21 12.2L21 54.3L-21 54.3L-21 12.2L-57.5 -8.9L-36.5 -45.4L0 -24.3L36.5 -45.4L57.5 -8.9Z" transform="translate(387 597)"></path><path d="M13.8 7.9L13.8 35.5L-13.8 35.5L-13.8 7.9L-37.6 -5.8L-23.8 -29.7L0 -15.9L23.8 -29.7L37.6 -5.8Z" transform="translate(801 311)"></path><path d="M19.7 11.4L19.7 50.8L-19.7 50.8L-19.7 11.4L-53.8 -8.3L-34.1 -42.4L0 -22.7L34.1 -42.4L53.8 -8.3Z" transform="translate(566 408)"></path><path d="M25.4 14.6L25.4 65.4L-25.4 65.4L-25.4 14.6L-69.3 -10.7L-43.9 -54.7L0 -29.3L43.9 -54.7L69.3 -10.7Z" transform="translate(545 5)"></path></g></svg>