<svg id="visual" viewBox="0 0 900 450" width="900" height="450" xmlns="http://www.w3.org/2000/svg" xmlns:xlink="http://www.w3.org/1999/xlink" version="1.1"><rect x="0" y="0" width="900" height="450" fill="#000000"></rect><g fill="none" stroke="#bfb9e7" stroke-width="1"><path d="M9.4 5.5L9.4 24.3L-9.4 24.3L-9.4 5.5L-25.8 -4L-16.4 -20.4L0 -10.9L16.4 -20.4L25.8 -4Z" transform="translate(303 85)"></path><path d="M9.4 5.5L9.4 24.3L-9.4 24.3L-9.4 5.5L-25.8 -4L-16.4 -20.4L0 -10.9L16.4 -20.4L25.8 -4Z" transform="translate(848 48)"></path><path d="M9.2 5.3L9.2 23.6L-9.2 23.6L-9.2 5.3L-25.1 -3.9L-15.9 -19.8L0 -10.6L15.9 -19.8L25.1 -3.9Z" transform="translate(420 330)"></path><path d="M9.2 5.3L9.2 23.6L-9.2 23.6L-9.2 5.3L-25.1 -3.9L-15.9 -19.8L0 -10.6L15.9 -19.8L25.1 -3.9Z" transform="translate(666 431)"></path><path d="M9.2 5.3L9.2 23.6L-9.2 23.6L-9.2 5.3L-25.1 -3.9L-15.9 -19.8L0 -10.6L15.9 -19.8L25.1 -3.9Z" transform="translate(705 95)"></path><path d="M9.2 5.3L9.2 23.6L-9.2 23.6L-9.2 5.3L-25.1 -3.9L-15.9 -19.8L0 -10.6L15.9 -19.8L25.1 -3.9Z" transform="translate(148 433)"></path><path d="M9.2 5.3L9.2 23.6L-9.2 23.6L-9.2 5.3L-25.1 -3.9L-15.9 -19.8L0 -10.6L15.9 -19.8L25.1 -3.9Z" transform="translate(52 407)"></path><path d="M9.2 5.3L9.2 23.6L-9.2 23.6L-9.2 5.3L-25.1 -3.9L-15.9 -19.8L0 -10.6L15.9 -19.8L25.1 -3.9Z" transform="translate(428 200)"></path><path d="M9.2 5.3L9.2 23.6L-9.2 23.6L-9.2 5.3L-25.1 -3.9L-15.9 -19.8L0 -10.6L15.9 -19.8L25.1 -3.9Z" transform="translate(185 191)"></path><path d="M9.2 5.3L9.2 23.6L-9.2 23.6L-9.2 5.3L-25.1 -3.9L-15.9 -19.8L0 -10.6L15.9 -19.8L25.1 -3.9Z" transform="translate(158 346)"></path><path d="M9.2 5.3L9.2 23.6L-9.2 23.6L-9.2 5.3L-25.1 -3.9L-15.9 -19.8L0 -10.6L15.9 -19.8L25.1 -3.9Z" transform="translate(254 227)"></path><path d="M9.2 5.3L9.2 23.6L-9.2 23.6L-9.2 5.3L-25.1 -3.9L-15.9 -19.8L0 -10.6L15.9 -19.8L25.1 -3.9Z" transform="translate(806 397)"></path><path d="M9.2 5.3L9.2 23.6L-9.2 23.6L-9.2 5.3L-25.1 -3.9L-15.9 -19.8L0 -10.6L15.9 -19.8L25.1 -3.9Z" transform="translate(9 272)"></path><path d="M9.2 5.3L9.2 23.6L-9.2 23.6L-9.2 5.3L-25.1 -3.9L-15.9 -19.8L0 -10.6L15.9 -19.8L25.1 -3.9Z" transform="translate(17 175)"></path><path d="M9.2 5.3L9.2 23.6L-9.2 23.6L-9.2 5.3L-25.1 -3.9L-15.9 -19.8L0 -10.6L15.9 -19.8L25.1 -3.9Z" transform="translate(101 53)"></path><path d="M9.2 5.3L9.2 23.6L-9.2 23.6L-9.2 5.3L-25.1 -3.9L-15.9 -19.8L0 -10.6L15.9 -19.8L25.1 -3.9Z" transform="translate(678 204)"></path><path d="M9.2 5.3L9.2 23.6L-9.2 23.6L-9.2 5.3L-25.1 -3.9L-15.9 -19.8L0 -10.6L15.9 -19.8L25.1 -3.9Z" transform="translate(612 175)"></path><path d="M9.2 5.3L9.2 23.6L-9.2 23.6L-9.2 5.3L-25.1 -3.9L-15.9 -19.8L0 -10.6L15.9 -19.8L25.1 -3.9Z" transform="translate(167 120)"></path><path d="M9.2 5.3L9.2 23.6L-9.2 23.6L-9.2 5.3L-25.1 -3.9L-15.9 -19.8L0 -10.6L15.9 -19.8L25.1 -3.9Z" transform="translate(563 383)"></path><path d="M9.2 5.3L9.2 23.6L-9.2 23.6L-9.2 5.3L-25.1 -3.9L-15.9 -19.8L0 -10.6L15.9 -19.8L25.1 -3.9Z" transform="translate(805 284)"></path><path d="M9.2 5.3L9.2 23.6L-9.2 23.6L-9.2 5.3L-25.1 -3.9L-15.9 -19.8L0 -10.6L15.9 -19.8L25.1 -3.9Z" transform="translate(249 297)"></path><path d="M9.2 5.3L9.2 23.6L-9.2 23.6L-9.2 5.3L-25.1 -3.9L-15.9 -19.8L0 -10.6L15.9 -19.8L25.1 -3.9Z" transform="translate(448 24)"></path><path d="M9.2 5.3L9.2 23.6L-9.2 23.6L-9.2 5.3L-25.1 -3.9L-15.9 -19.8L0 -10.6L15.9 -19.8L25.1 -3.9Z" transform="translate(290 425)"></path><path d="M9.2 5.3L9.2 23.6L-9.2 23.6L-9.2 5.3L-25.1 -3.9L-15.9 -19.8L0 -10.6L15.9 -19.8L25.1 -3.9Z" transform="translate(330 245)"></path><path d="M9.2 5.3L9.2 23.6L-9.2 23.6L-9.2 5.3L-25.1 -3.9L-15.9 -19.8L0 -10.6L15.9 -19.8L25.1 -3.9Z" transform="translate(480 285)"></path><path d="M9.2 5.3L9.2 23.6L-9.2 23.6L-9.2 5.3L-25.1 -3.9L-15.9 -19.8L0 -10.6L15.9 -19.8L25.1 -3.9Z" transform="translate(866 214)"></path><path d="M9.2 5.3L9.2 23.6L-9.2 23.6L-9.2 5.3L-25.1 -3.9L-15.9 -19.8L0 -10.6L15.9 -19.8L25.1 -3.9Z" transform="translate(350 9)"></path><path d="M9.2 5.3L9.2 23.6L-9.2 23.6L-9.2 5.3L-25.1 -3.9L-15.9 -19.8L0 -10.6L15.9 -19.8L25.1 -3.9Z" transform="translate(81 246)"></path><path d="M9.2 5.3L9.2 23.6L-9.2 23.6L-9.2 5.3L-25.1 -3.9L-15.9 -19.8L0 -10.6L15.9 -19.8L25.1 -3.9Z" transform="translate(515 71)"></path><path d="M9.2 5.3L9.2 23.6L-9.2 23.6L-9.2 5.3L-25.1 -3.9L-15.9 -19.8L0 -10.6L15.9 -19.8L25.1 -3.9Z" transform="translate(408 421)"></path><path d="M9.2 5.3L9.2 23.6L-9.2 23.6L-9.2 5.3L-25.1 -3.9L-15.9 -19.8L0 -10.6L15.9 -19.8L25.1 -3.9Z" transform="translate(296 355)"></path><path d="M9.2 5.3L9.2 23.6L-9.2 23.6L-9.2 5.3L-25.1 -3.9L-15.9 -19.8L0 -10.6L15.9 -19.8L25.1 -3.9Z" transform="translate(550 142)"></path></g></svg>