<svg id="visual" viewBox="0 0 900 450" width="900" height="450" xmlns="http://www.w3.org/2000/svg" xmlns:xlink="http://www.w3.org/1999/xlink" version="1.1"><rect x="0" y="0" width="900" height="450" fill="#000000"></rect><defs><linearGradient id="grad1_0" x1="50%" y1="0%" x2="100%" y2="100%"><stop offset="10%" stop-color="#e6cbf7" stop-opacity="1"></stop><stop offset="90%" stop-color="#e6cbf7" stop-opacity="1"></stop></linearGradient></defs><defs><linearGradient id="grad1_1" x1="50%" y1="0%" x2="100%" y2="100%"><stop offset="10%" stop-color="#e6cbf7" stop-opacity="1"></stop><stop offset="90%" stop-color="#735c82" stop-opacity="1"></stop></linearGradient></defs><defs><linearGradient id="grad1_2" x1="50%" y1="0%" x2="100%" y2="100%"><stop offset="10%" stop-color="#000000" stop-opacity="1"></stop><stop offset="90%" stop-color="#735c82" stop-opacity="1"></stop></linearGradient></defs><defs><linearGradient id="grad2_0" x1="0%" y1="0%" x2="50%" y2="100%"><stop offset="10%" stop-color="#e6cbf7" stop-opacity="1"></stop><stop offset="90%" stop-color="#e6cbf7" stop-opacity="1"></stop></linearGradient></defs><defs><linearGradient id="grad2_1" x1="0%" y1="0%" x2="50%" y2="100%"><stop offset="10%" stop-color="#735c82" stop-opacity="1"></stop><stop offset="90%" stop-color="#e6cbf7" stop-opacity="1"></stop></linearGradient></defs><defs><linearGradient id="grad2_2" x1="0%" y1="0%" x2="50%" y2="100%"><stop offset="10%" stop-color="#735c82" stop-opacity="1"></stop><stop offset="90%" stop-color="#000000" stop-opacity="1"></stop></linearGradient></defs><g transform="translate(900, 0)"><path d="M0 405C-38.2 407.4 -76.4 409.7 -104.8 391.2C-133.2 372.7 -151.8 333.3 -179.5 310.9C-207.2 288.5 -244 283.2 -260.2 260.2C-276.4 237.3 -272 196.7 -294.4 170C-316.9 143.3 -366.4 130.3 -389.3 104.3C-412.2 78.3 -408.6 39.1 -405 0L0 0Z" fill="#3f2b4e"></path><path d="M0 270C-25.5 271.6 -51 273.1 -69.9 260.8C-88.8 248.5 -101.2 222.2 -119.7 207.3C-138.1 192.3 -162.7 188.8 -173.5 173.5C-184.3 158.2 -181.3 131.2 -196.3 113.3C-211.3 95.5 -244.2 86.9 -259.5 69.5C-274.8 52.2 -272.4 26.1 -270 0L0 0Z" fill="#ab91bb"></path><path d="M0 135C-12.7 135.8 -25.5 136.6 -34.9 130.4C-44.4 124.2 -50.6 111.1 -59.8 103.6C-69.1 96.2 -81.3 94.4 -86.7 86.7C-92.1 79.1 -90.7 65.6 -98.1 56.7C-105.6 47.8 -122.1 43.4 -129.8 34.8C-137.4 26.1 -136.2 13 -135 0L0 0Z" fill="#e6cbf7"></path></g><g transform="translate(0, 450)"><path d="M0 -405C23.3 -361.1 46.6 -317.1 84.6 -315.9C122.7 -314.6 175.4 -356 199.5 -345.5C223.6 -335.1 219 -272.9 244.7 -244.7C270.3 -216.4 326.3 -222.2 350.7 -202.5C375.2 -182.8 368.1 -137.6 371.9 -99.6C375.7 -61.7 390.3 -30.8 405 0L0 0Z" fill="#3f2b4e"></path><path d="M0 -270C15.5 -240.7 31.1 -211.4 56.4 -210.6C81.8 -209.7 116.9 -237.3 133 -230.4C149.1 -223.4 146 -181.9 163.1 -163.1C180.2 -144.3 217.5 -148.1 233.8 -135C250.1 -121.9 245.4 -91.8 247.9 -66.4C250.4 -41.1 260.2 -20.6 270 0L0 0Z" fill="#ab91bb"></path><path d="M0 -135C7.8 -120.4 15.5 -105.7 28.2 -105.3C40.9 -104.9 58.5 -118.7 66.5 -115.2C74.5 -111.7 73 -91 81.6 -81.6C90.1 -72.1 108.8 -74.1 116.9 -67.5C125.1 -60.9 122.7 -45.9 124 -33.2C125.2 -20.6 130.1 -10.3 135 0L0 0Z" fill="#e6cbf7"></path></g></svg>