<?xml version="1.0" encoding="UTF-8"?><svg id="Layer_1" xmlns="http://www.w3.org/2000/svg" viewBox="0 0 500 500"><path d="m135.71,95.97c2.85.54,5.6,1.5,8.19,2.74,2.59,1.25,5.05,2.78,7.23,4.68,2.31,1.98,4.41,4.35,6.2,6.84,2.42,3.31,4.28,7.19,4.92,11.7.32,2.24.3,4.63-.16,7.01-.46,2.38-1.37,4.72-2.58,6.71-2.43,4.02-5.71,6.88-9.07,9.06-3.38,2.19-7.11,3.78-10.99,4.73-4.78,1.18-9.79,1.44-14.73.69-2.44-.37-4.97-1.01-7.41-1.97-2.43-.97-4.79-2.25-7.01-3.93-2.21-1.71-4.3-3.82-5.93-6.46-.81-1.32-1.5-2.74-2.01-4.25-.48-1.5-.86-3.01-1.02-4.56-.35-3.1.01-6.17.77-8.86.76-2.71,1.87-5.11,3.11-7.24,1.51-2.6,3.67-4.56,5.81-6.21,2.07-1.58,4.54-1.4,6.94-.34,3.51,1.58,5.19,5.25,4,7.94-.77,1.72-1.92,3.18-3.04,4.47-1.29,1.48-2.33,3.06-2.93,4.58-.6,1.53-.78,2.96-.56,4.22.02.32.15.63.24.94.07.32.24.58.36.86.29.55.71,1.05,1.18,1.53.98.95,2.33,1.74,3.89,2.24.86.27,1.79.45,2.69.63.91.19,1.76.37,2.66.81,2.84,1.36,6.23,1.46,9.36.78,3.16-.67,6.11-2.08,8.79-3.63,1.98-1.14,3.45-2.69,4.19-4.2.74-1.47.92-3.17.65-5.18-.22-1.77-.96-3.68-2.02-5.41-.54-.86-1.14-1.71-1.83-2.45-.34-.38-.75-.73-1.12-1.12-.38-.37-.82-.68-1.23-1.04-3.41-2.65-7.91-4.24-12.5-4.41-1.83-.05-3.63-.2-5.5-.38-1.88-.21-3.88-.56-6.17-.99-2.11-.42-3.96-3.18-2.15-5.01,2.53-2.5,5.94-4.3,9.54-5.2,2.98-.75,6.14-.49,9.15-.11.02-.07.04-.14.06-.22Z"/><path d="m105.58,223.21c2.22,1.12,4.46,2.51,6.54,4.36,2.08,1.84,3.96,4.29,5.15,7.01l.47,1.08c.13.37.23.74.35,1.12.21.75.45,1.47.57,2.27l.2,1.17.11,1.18c.09.79.07,1.56.09,2.33-.02,2.06-.36,4.06-.93,5.93-.59,1.86-1.4,3.58-2.36,5.18-1.95,3.18-4.47,5.88-7.56,8.01-6.1,4.18-13.44,5.73-20.53,4.94-4.36-.52-8.68-1.91-12.56-4.29-.99-.56-1.9-1.27-2.83-1.94-.92-.73-1.81-1.51-2.64-2.36-1.66-1.7-3.16-3.64-4.35-5.95-1.19-2.28-2.07-4.99-2.26-7.93-.19-2.97.37-5.88,1.5-8.55,1.14-2.66,2.82-4.88,4.58-6.61,1.77-1.72,3.62-3.04,5.45-4.15,2.22-1.34,4.68-1.88,6.97-2.21,2.21-.32,4.1,1.04,5.65,3.12,2.24,3.04,2.3,7.04.38,8.74-1.22,1.09-2.66,1.73-4.02,2.21-1.57.55-2.97,1.27-4.02,2.08-1.06.82-1.72,1.7-2,2.52-.11.2-.08.42-.15.62-.04.21,0,.44-.04.64.01.4.11.78.28,1.19.32.81,1.02,1.69,1.97,2.45.52.42,1.15.77,1.74,1.14.3.19.57.38.84.6.29.21.54.47.75.78.74.94,1.72,1.72,2.82,2.3,1.12.55,2.35.91,3.61,1.12,1.27.17,2.55.22,3.83.16,1.27-.09,2.53-.24,3.78-.43,1.86-.29,3.65-1.09,5.04-2.09,1.45-1.05,2.69-2.43,3.63-3.85.83-1.27,1.38-2.61,1.51-3.85.11-.63.04-1.23-.03-1.85-.1-.31-.16-.65-.24-.97-.14-.29-.24-.61-.38-.92-.59-1.2-1.63-2.36-3.08-3.37-1.44-1.02-3.24-1.87-5.18-2.54-3.11-1.06-6.15-2.63-9-5.84-1.31-1.49-1.04-4.79.8-5.38,2.59-.83,5.4-1.16,8.27-.98,2.37.16,4.72,1.04,7.15,2.03.04-.07.07-.13.1-.2Z"/><path d="m236.86,183.63c1.4.77,2.81,1.69,4.2,2.89,1.39,1.24,2.75,2.81,3.75,4.74.25.53.48,1.06.69,1.59.18.55.33,1.11.48,1.67.16.56.2,1.1.29,1.65l.12.82.05.85c.13,1.52-.1,3.09-.51,4.55-.44,1.44-1.09,2.77-1.85,3.9-1.53,2.3-3.41,3.9-5.38,5.19-1.99,1.28-4.12,2.18-6.48,2.72-2.31.52-4.54.65-6.82.45-2.79-.29-5.6-.99-8.35-2.51-1.37-.72-2.7-1.71-3.94-2.86-1.23-1.17-2.33-2.6-3.2-4.16-.21-.39-.4-.8-.59-1.21l-.27-.62c-.09-.23-.18-.51-.26-.76-.16-.52-.31-1.04-.44-1.57-.09-.52-.16-1.04-.22-1.56-.07-.53-.08-1.03-.07-1.53.01-.5.02-1.01.07-1.49.13-.94.28-1.91.56-2.77,1.05-3.53,3.03-6.43,6.1-8.77,1.89-1.39,4.71-2,7.39-1.59,1.28.15,2.27.97,2.82,1.9.53.99.64,2.22.47,3.45-.26,1.81-1.24,3.42-1.89,4.82-.17.35-.32.68-.44.99-.05.14-.11.29-.16.45l-.06.19v-.05s.03-.11.03-.11h0s0,0,0-.01c-.03.1.05.81.48,1.57l.09.18c.03.06,0,0,0,0l-.06-.07c-.05-.05-.11-.02-.18-.03-.07-.02-.14.03-.22.05-.08.02-.16.06-.22.12-.29.2-.52.57-.53.86-.03.08,0,.13,0,.19,0,.06.01.11.06.14.04.02.02.08.09.07h.06s-.2.04-.2.04c-.05,0-.12.02-.21.06h-.02s0,.01,0,.01h0s0,0,0,0c-.56.22.76-.3.63-.25h0s.03.02.03.02l.07.03.12.05c.06.04.18.05.27.06.08.02.18.03.29.02.46.01.99-.29,1.08.36.08.53.44.93.87,1.23.45.28.99.46,1.56.54,1.12.16,2.38.02,3.33.06.81.04,1.66-.25,2.31-.63.65-.38,1.11-.82,1.4-1.04.25-.21.37-.23.51-.39.1-.24.21-.46.13-.79-.08-.35-.46-.89-1.11-1.41-.64-.53-1.55-1.01-2.54-1.42-1.58-.67-3.06-2.03-4.56-5.13-.69-1.44-.5-4.74.65-5.39,1.61-.92,3.37-1.37,5.18-1.41,1.5-.03,2.95.67,4.47,1.24.03-.07.06-.13.09-.2Z"/><path d="m305.04,58.67c3.02.55,6.28,1.57,9.26,3.36l.59.35.64.43c.43.29.86.58,1.24.91.8.62,1.51,1.27,2.25,1.91,1.91,1.72,3.48,3.77,4.62,6.22,1.12,2.43,1.78,5.43,1.3,8.76-.46,3.33-2.48,6.69-4.99,8.7-2.52,2.08-5.23,3.09-7.66,3.65-3.05.66-5.73.73-8.59.47-2.84-.31-5.77-1.03-8.63-2.48-1.42-.73-2.82-1.63-4.11-2.73-.65-.55-1.25-1.14-1.85-1.79-.63-.71-1.2-1.44-1.7-2.21-1.97-3.07-3.03-6.48-3.05-10.15-.02-2.22.96-4.52,2.39-6.37.7-.89,1.68-1.38,2.77-1.44,1.06-.08,2.24.27,3.34.86,1.62.87,2.85,2.28,3.89,3.42.51.57.98,1.08,1.35,1.46.4.41.7.67.87.83.44.4.41.48.15.76-.6.65-.49,2.12.17,2.86.08.1.15.19.25.25l.13.11.19.13c.24.18.52.31.82.42.6.22,1.3.31,2.05.26.84-.05,1.73-.44,2.46.17,1.19.97,2.93,1.1,4.14.89.6-.11,1.12-.28,1.45-.43.35-.14.5-.22.7-.18.23,0,.39.1.44-.25.06-.33,0-.96-.21-1.71-.19-.67-.54-1.38-.98-1.99-.12-.14-.23-.28-.35-.44-.13-.12-.25-.25-.37-.39-.13-.1-.25-.22-.39-.34l-.59-.38c-1.62-.98-3.84-1.56-6.37-1.76-2-.18-4.14-1.08-6.4-3.8-1.04-1.26-1.39-4.55-.44-5.42,1.35-1.22,2.92-2.08,4.64-2.6,1.42-.43,3-.19,4.6-.11,0-.08.02-.15.03-.22Z"/><path d="m406.82,196.67c2.35,2.45,4.25,5.41,5.53,8.59,1.26,3.18,1.9,6.5,1.93,9.75.04,3.45-.54,6.81-1.43,10.07-.59,2.18-1.47,4.31-2.6,6.33-.55,1.02-1.23,1.98-1.91,2.94-.74.93-1.49,1.84-2.32,2.65-3.27,3.33-7.33,5.67-11.48,7.14-2.08.72-4.2,1.25-6.32,1.6-2.12.33-4.25.5-6.37.52-2.12,0-4.23-.15-6.32-.45-2.07-.3-4.15-.75-6.23-1.39-2.56-.79-5.14-1.87-7.61-3.36-2.47-1.5-4.84-3.39-6.85-5.78-4.06-4.78-6.1-10.74-6.42-16.53-.33-5.81.97-11.7,3.98-16.88,2.95-5.06,7.25-9.05,12.04-11.8,2.91-1.67,6.27-2.41,9.47-2.66,3.11-.22,5.3,1.48,6.52,3.85.9,1.73.91,3.59.49,5.16-.44,1.56-1.29,2.82-2.52,3.54-1.56.9-3.25,1.46-4.92,2.01-3.85,1.22-7.18,3.92-8.96,7.26-1.71,3.23-1.94,7.47-.57,10.75.34.92.88,1.73,1.34,2.5.48.76.91,1.45,1.19,2.25.43,1.24,1.34,2.44,2.57,3.4,1.21.98,2.75,1.74,4.42,2.31,1.66.57,3.5.98,5.34,1.24,1.83.27,3.67.41,5.5.47,1.36.06,2.72-.03,4.03-.26,1.32-.21,2.58-.57,3.76-1.03,1.2-.44,2.29-1.03,3.3-1.69,1.02-.64,1.94-1.43,2.76-2.24,1.46-1.43,2.59-3.33,3.36-5.41.72-2.1,1.08-4.39.9-6.65-.08-1.12-.26-2.24-.6-3.3-.3-1.08-.76-2.08-1.32-3.06-.54-.99-1.29-1.88-2.06-2.75-.81-.84-1.72-1.62-2.7-2.3-1.57-1.09-3.18-2.08-4.85-3.18-1.68-1.08-3.45-2.26-5.56-3.57-1.93-1.16-2.69-4.42.06-5.46,1.9-.64,3.96-.98,6.07-1,2.09.02,4.22.32,6.26.92,3.38,1,6.34,3.21,8.96,5.63.06-.05.11-.09.18-.14Z"/><path d="m324.1,311.84c1.46,1.72,2.6,3.65,3.38,5.78.78,2.11,1.15,4.49.95,6.88-.03.66-.13,1.21-.24,1.77-.1.56-.23,1.11-.39,1.64-.29,1.08-.68,2.11-1.06,3.13-1.05,2.7-2.65,5.05-4.55,6.97-1.91,1.91-4.12,3.45-6.56,4.6-2.45,1.15-5.09,1.89-8.2,2-2.97.08-5.8-.48-8.4-1.51-3.19-1.3-6.15-3.27-8.62-6.2-.63-.69-1.17-1.59-1.71-2.41-.26-.43-.49-.92-.72-1.39-.22-.48-.46-.93-.63-1.46-.35-1.04-.69-2.08-.82-3.23-.07-.57-.17-1.13-.18-1.7,0-.58,0-1.15.04-1.73,0-.58.1-1.14.22-1.69.11-.56.23-1.11.36-1.66.34-1.03.68-2.05,1.2-3,.48-.98,1.08-1.85,1.71-2.71.65-.79,1.34-1.59,2.06-2.22.72-.69,1.46-1.22,2.21-1.77.73-.47,1.49-.97,2.22-1.34,1.48-.81,2.91-1.38,4.31-1.87,1.7-.6,3.48-.49,5.13-.28,1.59.2,2.84,1.89,3.81,4.22,1.4,3.4,1.24,7.31-.16,8.53-.89.79-1.93,1.03-2.91,1.11-2.25.15-4.24.92-5.03,1.85-.78.85-.63,1.97.12,2.03.39.13.91-.01.78.66-.16,1.13.95,2.22,2.16,2.77,1.25.59,2.56.67,3.62.89.92.16,2.09-.09,3.08-.54,1.02-.45,1.93-1.08,2.76-1.73.73-.58,1.34-1.25,1.77-1.94.12-.17.18-.35.3-.53.09-.18.14-.36.24-.55.06-.19.1-.38.17-.57.03-.16.05-.29.1-.44.1-.61-.02-1.44-.4-2.25-.37-.82-.98-1.61-1.69-2.2-.57-.48-1.02-.98-1.6-1.77-.59-.78-1.37-1.79-2.86-2.85-.67-.49-1.46-1.44-1.88-2.45-.42-1-.4-2.12.46-2.81.59-.5,1.29-.83,2.02-1.18.73-.32,1.51-.51,2.32-.69.78-.1,1.61-.18,2.41-.15.77.06,1.61.12,2.34.31,2.53.57,4.5,2.2,6.17,3.83.06-.05.11-.1.17-.15Z"/><path d="m209.87,366.59c2.36,2.47,4.23,5.34,5.49,8.57,1.24,3.23,1.8,6.88,1.34,10.5-.49,3.82-2.08,7.15-3.79,10-2.3,3.85-5.32,6.85-8.62,9.34-3.33,2.49-7.04,4.41-10.95,5.74-7.81,2.65-16.5,2.9-24.65.26-4.95-1.63-9.87-4.18-14-8.78-2.02-2.31-3.8-5.22-4.69-8.54-.93-3.29-.99-6.77-.36-9.87.61-3.12,1.8-5.93,3.31-8.43,1.52-2.5,3.37-4.7,5.51-6.62.55-.47,1.1-.93,1.67-1.38.58-.42,1.19-.88,1.76-1.24,1.14-.74,2.31-1.42,3.5-2.01,2.37-1.19,4.77-2.09,7.13-2.81,2.85-.86,5.77-.91,8.48-.82,2.6.09,4.44,1.73,5.76,4.01,1.95,3.34,1.07,7.34-2,8.77-1.94.91-4.03,1.32-5.97,1.59-2.25.31-4.34.84-6.24,1.6-.93.4-1.85.83-2.67,1.36-.45.25-.76.52-1.13.77-.34.3-.7.56-1.01.89-1.3,1.26-2.34,2.82-2.9,4.41-.61,1.58-.64,3.15-.32,4.31.44,1.32,1.25,1.88,1.68,3.29.37,1.13,1.3,2.29,2.53,3.26,1.22.98,2.77,1.73,4.37,2.32,1.59.62,3.3.93,5.01,1.22,1.72.25,3.47.33,5.25.42,2.64.07,5.31-.42,7.82-1.3,2.51-.88,4.85-2.14,6.98-3.64,1.94-1.31,3.58-2.92,4.81-4.62,1.21-1.71,1.91-3.47,2.02-5.21.11-1.76-.4-3.77-1.47-5.62-.53-.93-1.19-1.81-1.95-2.61-.75-.79-1.62-1.5-2.6-2.15-3.11-2.05-6.48-4.03-10.07-7.35-1.65-1.5-1.49-4.83.95-5.36,3.42-.72,7.26-.64,11.1.47,1.57.45,3.12,1.19,4.58,2.12.73.46,1.44.97,2.14,1.51.72.56,1.4,1.15,2.06,1.75.06-.05.11-.09.18-.14Z"/><path d="m458.8,422.33c1.89,1.84,3.53,4.29,4.43,7,.95,2.77,1.04,5.62.62,8.15-.46,2.7-1.47,5.06-2.61,7.28-.76,1.49-1.69,2.89-2.82,4.18l-.88.94-.89.84c-.61.54-1.23,1.05-1.88,1.52-2.59,1.88-5.41,3.14-8.19,4-1.39.43-2.78.76-4.16,1.02-.69.12-1.37.23-2.06.32-.72.08-1.51.14-2.26.2-3.02.13-6-.17-8.97-.95-1.82-.46-3.65-1.17-5.46-2.06-1.81-.98-3.61-2.09-5.29-3.73-1.64-1.63-3.23-3.6-4.21-6.05-.99-2.42-1.48-4.98-1.36-7.58.14-2.58.82-5.04,1.85-7.12,1.02-2.1,2.32-3.91,3.79-5.45,1.46-1.54,3.12-2.88,4.88-3.95,1.69-1.04,3.41-1.85,5.08-2.49,2.03-.79,4.15-.81,6.07-.71,1.85.1,3.29,1.72,4.46,3.97,1.73,3.3,1.58,7.26-.29,8.63-1.17.88-2.48,1.23-3.69,1.41-1.4.2-2.65.55-3.73,1.05-.55.27-.99.51-1.42.83-.42.32-.8.68-1.13,1.06-.65.78-1.05,1.66-1.11,2.38-.06.75.16,1.21.57,1.58.46.41,1,.22,1.01,1,.07.62.46,1.32,1.19,1.85.7.54,1.59.98,2.58,1.27,1.98.63,4.18.73,6.26.9,3.64.18,6.92-.97,9.19-2.41.27-.16.51-.34.76-.51.2-.17.42-.32.62-.52.4-.38.8-.8,1.11-1.28.67-.94,1.11-2.03,1.26-3.02.09-.5.08-.97.03-1.42-.01-.23-.09-.44-.13-.66-.11-.22-.15-.48-.29-.69-.42-.92-1.28-1.83-2.5-2.67-1.94-1.32-4.18-3.15-6.02-6.66-.84-1.62-.05-4.83,1.57-5.21,2.3-.51,4.79-.54,7.44.13,2.17.53,4.31,1.97,6.41,3.76.06-.05.11-.1.16-.15Z"/><path d="m459.16,328.24c.92.7,1.85,1.53,2.71,2.5.44.5.81.97,1.24,1.58.46.64.83,1.29,1.15,1.94.66,1.39,1.01,2.78,1.42,4.19.54,1.87.75,4.08.01,6.57-.37,1.23-1.04,2.5-1.93,3.6-.92,1.11-2.01,1.96-3.04,2.56-2.09,1.19-3.78,1.53-4.92,1.84-1.16.29-2.41.51-3.76.61-1.66.12-3.5.1-5.53-.32-2.01-.4-4.29-1.27-6.3-2.76l-.74-.58c-.23-.18-.57-.52-.84-.78-.59-.57-1.04-1.17-1.49-1.79-.83-1.23-1.45-2.53-1.82-3.82-.77-2.59-.86-5.26,0-8.2.55-1.79,2.17-3.51,4.12-4.49.91-.49,2-.4,2.88.06.9.49,1.66,1.39,2.25,2.47.87,1.59,1.2,3.44,1.69,4.89l.09.27s0,0,0,0v-.04s-.03-.06-.05-.09l-.03-.06h0s0,0,0-.01c.02.05.3.34.8.57.57.29,1.29.41,1.67.41h.13c.05,0-.01,0,0,0l-.04.02s-.01.03.02.02c-.21.05-.76.34-1.08.62-.09.09-.14.12-.22.2l-.05.06-.03.03h0s0,0,0,0l1.44-1.68h0s0,0,0,0h0s.07-.07.07-.07c.09-.08.19-.2.28-.32.23-.28.43-.81.49-.28.15.85.89,1.09,1.7,1.08.41,0,.86-.05,1.33-.08.44-.03,1.04-.06,1.42.03.28.07.46.1.5.14.01.02,0-.02.02.04l.17.42c.08.23.21.49.29.66.19.4.34.65.47.83.07.09.11.16.16.21l.15.17c.06.06-.01-.01-.01,0-.13-.09-.34-.19-.7-.28-.31-.08-.67-.11-.99-.1-.08,0-.16,0-.24.01h-.09s.02,0,.02,0c.04,0,.06-.03.09-.05.12-.11.17-.32.23-.47.14-.07-.05-.49-.3-.81-.26-.34-.65-.71-1.17-1.05-.8-.56-1.56-1.94-1.89-5.1-.14-1.46.71-4.66,1.5-5.22,1.13-.79,2.32-1.17,3.57-1.18,1.04,0,1.98.66,3.04,1.2.04-.07.07-.13.11-.19Z"/><path d="m295.94,444.07c1.81,2.74,2.71,5.83,2.6,9.13-.02.86-.17,1.75-.33,2.61-.19.78-.37,1.55-.57,2.31-.51,2.04-1.43,3.91-2.59,5.49-1.17,1.59-2.57,2.94-4.13,4.04-1.57,1.1-3.32,1.96-5.24,2.5-.48.13-.98.24-1.47.35-.51.08-1.03.16-1.54.21-1.02.08-2.04.09-3.05-.01-2.48-.23-4.91-.97-7.22-2.33-2.29-1.37-4.54-3.47-5.94-6.35-.37-.7-.62-1.46-.88-2.21-.23-.91-.46-1.86-.49-2.75-.15-1.84.13-3.54.6-5.08,1-3.06,2.76-5.55,5.45-7.51,1.64-1.18,4.07-1.61,6.34-1.24,1.09.15,1.96.87,2.44,1.78.48.93.58,2.13.43,3.36-.23,1.81-1.08,3.48-1.59,4.93-.06.17-.12.35-.18.53l-.08.25c-.02.05,0,0,0,.01l.02-.09v-.05s0,.02,0,.02c0,.01,0,.02,0,.02-.02.14.07.67.36,1.19.16.33.35.58.54.8.05.05.09.1.13.14l-.04-.03s-.06-.03-.09-.03c-.12-.01-.22.09-.18.11.03.01-.04-.02-.11-.03-.06-.02-.13-.03-.2-.04-.15-.01-.24-.05-.38-.05h-.34c-.11,0-.23.03-.26.03-.03,0-.06.01-.09.02l-.05.02,1.7-.52s0,0,.01,0c.05-.02.1-.05.13-.07.07-.04.16-.09.22-.14.19-.13.4-.32.63-.56.12-.13.1-.12.03.12-.27.78.31,1.21.83,1.27.58.1.93-.03,1.6.1.5.1,1.01-.07,1.44-.3.43-.24.78-.54,1.12-.78.62-.4,1.04-.96,1.25-1.31.25-.54.02-1.61-.46-2.28-.19-.26-.22-.71-.32-1.44-.11-.74-.31-1.87-1.07-3.29-.67-1.32-1.55-4.58-.08-5.44,1.98-1.16,4.62-1.25,6.77-.53,1.8.59,3.06,1.99,4.18,3.27.06-.05.12-.09.18-.14Z"/><path d="m78.31,342.86c.71.33,1.43.73,2.13,1.15.35.21.7.44,1.05.68.37.26.74.51,1.09.79,1.39,1.1,2.6,2.36,3.63,3.79,1.09,1.53,1.96,3.23,2.74,5.13,1.1,2.48,1.38,5.8.6,8.62-.75,2.85-2.24,5.12-3.85,6.89-3.21,3.5-7.37,5.68-11.87,6.5-2.78.5-5.74.5-8.8-.3-3.03-.74-6.17-2.48-8.54-5.03-.61-.68-1.3-1.54-1.8-2.37-.49-.85-.96-1.72-1.26-2.6-.7-1.77-.96-3.53-1.05-5.26-.03-1.72.11-3.41.57-5.06.18-.82.53-1.65.83-2.45.4-.81.74-1.61,1.29-2.39.32-.47.64-.92,1.08-1.34.43-.42.9-.8,1.38-1.14,1.06-.68,2.17-1.21,3.4-1.52.56-.17,1.14-.18,1.68-.06.54.11,1.03.33,1.47.64.88.67,1.51,1.69,1.92,2.87.6,1.73.53,3.6.59,5.14.02.77.07,1.46.16,1.98.02.1.04.2.06.3-.02-.05,0,0,0,0,0,.02.01.03.01.03,0,0,0-.02,0,.01.02.05.04.1.07.14.02.04.05.08.07.11.02.02.05.05.1.14.09.14.19.25.3.35.05.04.13.15.19.2.05.05.04.04.03.03l-.03-.02c-.21-.13-.56.04-.76.38-.2.34-.28.78-.23,1.16.06.38.29.64.5.68.06,0,.11,0,.15,0l.09-.05.03-.02-.05.04c.3-.2.4-.02.64-.13.47-.09.88-.52,1.06.07.39.93,1.51,1.23,2.57,1.07,1.09-.12,2.12-.58,3.18-.83.83-.19,1.55-.68,2-1.13.46-.46.61-.8.78-.93.14-.12.29-.24.29-.66,0-.4-.2-.98-.58-1.56-.39-.58-.87-1.12-1.53-1.58-.71-.49-1.57-.92-2.57-1.27-1.57-.57-3.25-1.86-4.76-4.96-.68-1.43-.38-4.73.63-5.4,1.43-.94,3.03-1.48,4.79-1.62,1.45-.11,2.93.47,4.49.99.03-.07.05-.14.08-.21Z"/><path d="m464.72,105.62c.97,1.56,1.69,3.17,2.08,4.91.4,1.73.57,3.52.33,5.41-.04.49-.14.98-.26,1.48-.13.5-.22.98-.41,1.47l-.54,1.45-.57,1.23c-1,2.19-2.56,4.09-4.32,5.51-1.77,1.43-3.73,2.44-5.75,3.1-2.03.66-4.13.98-6.3.93-2.14-.04-4.44-.5-6.49-1.37-2.53-1.06-4.76-2.6-6.68-4.68-1.89-2.06-3.5-4.75-4.17-8.01-.18-.8-.26-1.65-.32-2.49,0-.87-.03-1.63.14-2.67.12-1,.39-1.9.69-2.8.34-.85.71-1.71,1.17-2.44.9-1.53,2.01-2.8,3.28-3.86,1.26-1.08,2.7-1.96,4.35-2.59,1.98-.78,4.51-.63,6.73.26,1.07.41,1.79,1.31,2.08,2.33.29,1.02.15,2.23-.26,3.41-.6,1.72-1.81,3.16-2.66,4.44-.4.56-.89,1.49-.72,1.16.02-.06-.02.06-.01.04-.07.21-.11.87.05,1.48.02.09.04.18.07.26.01.04.03.08.04.12l.02.06h0s-.05-.13-.09-.13c-.08-.06-.18-.07-.29-.06-.21.03-.37.19-.38.29-.02.02.01.04.02.06.06.04-.13-.04-.22-.07l-.31-.07s-.09-.01-.14-.01h-.02s0,0,0,0h0c1.9.13.53.04.95.07h0s0,0,0,0h.02s.04.04.04.04c.18.13.44.2.78.22.4.05.96-.14.76.4-.28.91.35,1.61,1,1.92.65.34,1.28.35,2.1.68.61.24,1.29.2,1.87.06.59-.14,1.07-.39,1.49-.56.38-.16.68-.33.95-.56.04-.05.18-.15.18-.15.02-.02.08-.02.13-.04.02-.04.07-.07.12-.11.02-.06.05-.12.1-.19.28-.62,0-1.97-.59-2.74-.24-.28-.27-.72-.42-1.47-.15-.71-.49-1.87-1.54-3.13-.94-1.19-2.41-4.25-.82-5.38.52-.4,1.13-.66,1.78-.89.66-.25,1.33-.37,2.03-.43.72-.08,1.39-.04,2.08.04.71.07,1.34.24,1.98.46,2.09.71,3.55,2.31,4.71,3.77.06-.04.12-.08.19-.13Z"/><path d="m49.9,33.42c2.88-1.83,6.01-2.74,9.24-2.89,1.74-.03,3.47.13,5.27.44,2.38.35,4.91,1.39,6.87,3.02,1.99,1.62,3.48,3.74,4.42,5.94.96,2.21,1.39,4.51,1.38,6.79,0,2.28-.42,4.58-1.34,6.81-1.14,2.72-3.14,5.4-5.99,7.27-2.83,1.88-6.22,2.71-9.33,2.6-3.13-.1-5.96-1.01-8.43-2.39-2.47-1.4-4.63-3.3-6.33-5.74-.54-.7-.84-1.64-1.08-2.51-.18-.94-.29-1.87-.26-2.81.03-1.83,1.87-3.17,4.28-3.75,1.76-.44,3.63-.37,5.17-.31,1.56.08,2.71.1,3.21.15.32.04.44.08.55.16.04.04.06.09.05.15.01.06.02.13,0,.22-.09.4.07.82.29,1.22.28.36.63.72,1.08.88.43.21.91.22,1.31.16.19-.09.39-.1.53-.26l.2-.18c.05-.09.09-.17.12-.25.04-.08.07-.18.06-.3,0-.11,0-.18,0-.24-.02-.08-.03-.12-.02-.1l.02.02h0s0,.01,0,.01l.05.1h0s0-.02,0-.02v-.02s.03.07.03.07c.43.69.94.46,1.19-.04.28-.52.34-1.24.61-1.95.23-.55.14-1.08.02-1.46-.13-.4-.27-.63-.42-.88-.13-.23-.25-.48-.6-.66-.14-.14-.38-.16-.6-.27-.25-.02-.51-.12-.8-.1-1.17-.09-2.62.41-3.61,1.19-.18.16-.45.27-.7.39-.14.05-.29.1-.48.15-.16.05-.33.1-.54.15l-.69.17-.78.24c-.61.18-1.25.43-2.01.77-1.41.62-4.74,1.02-5.41-.55-.5-1.07-.64-2.25-.67-3.47.05-1.18.27-2.41.72-3.48.33-.94.92-1.66,1.54-2.39.64-.67,1.34-1.27,2.02-1.84-.04-.06-.09-.12-.13-.18Z"/><path d="m200.15,51.2c.07.41.02.88-.13,1.42-.08.28-.16.62-.44.81-.4.28-.8.63-1.16,1.19-.35.55-.58,1.19-.69,1.76-.2,1.16-.07,1.98.24,2.59.19.37.44.7.81,1,.08.07.22.16.27.2.05.04.12.08.17.11.11.06.21.11.28.14.32.12.28.01-.11-.06-.11-.02-.21-.6-.34-1.18-.12-.56-.11-2.45,0-4.92.16-3.59.56-7.42.97-8.29.26-.56.52-.54.76-.29.55.56,1.18.84,1.96.93.78.09,1.73-.02,2.99-.15.71-.06,1.56-.28,1.97.61.58,1.36,1.21,2.18,1.88,3.07.65.88,1.31,1.86,1.39,3.15.05.93.15,1.91.08,2.95-.06,1.04-.31,2.17-.87,3.12-.48.8-1.09,1.5-1.76,2.03-.65.52-1.34.89-1.95,1.11-1.23.44-2.23.47-3.04.43-.66-.04-1.41-1.05-2.27-3.91-.4-1.32-.94-4.59-.95-5.35,0-1.07,0-1.77-.03-2.19-.02-.35.05-.09.04-.08-.02-.07-.05-.14-.07-.21Z"/><path d="m198.56,298.99c-.9-.25-1.89-.56-2.92-.92-.55-.19-1.08-.42-1.67-.42-1.76,0-3.56-.3-5.38-1.26-.91-.48-1.83-1.16-2.67-2.1-.83-.94-1.55-2.17-1.95-3.56-.47-1.62-.52-3.41-.16-5.04.36-1.64,1.04-2.9,1.71-3.89,1.39-1.97,2.74-2.94,3.93-3.77.36-.25,1.03-.01,1.65.27.6.27,1.76,1.78,3.12,3.84,1.96,3.01,3.76,6.42,4.05,7.3.19.57.07.64-.15.53-.51-.25-.85-.24-.89-.09,0,.03-.01.08.03.12l.03.03.02.02h0s-.05-.04-.05-.04l-.38-.33c-.5-.42-.96-.74-1.35-.97-.2-.12-.45-.23-.58-.3-.08-.04-.17-.07-.26-.1-.05-.02-.11-.04-.17-.06-.07-.02-.13-.03-.2-.05h-.08s0,0,0,0c.01,0-.03,0,.05,0h.08s.03-.02.03-.02h0s0,0,0,0h0c.29-.06-.4.08-.33.07h0s0,0,0,0c0,0,.07-.02.17-.07.11-.06.23-.14.38-.26.43-.35.74-.97.73-1l-.02.06-.02.09v.06s.17-1.24.17-1.24c-.01.08.01.26.1.38.17.28.55.52,1.05.67.39.13,1.08,1.12,2.26,3.88.54,1.28,1.4,4.48,1.36,5.26-.05,1.11-.25,1.86-.59,2.37-.28.42-.75.25-1.18.32.01.08.02.14.04.22Z"/><path d="m339.82,145.43c.39.78.94,1.11,1.37,1.26.24.09.46.08.45.22-.06.36-.12.81.17,1.36.14.26.39.56.75.79.19.18.32.3.49.38.2.09.37.14.49.15.11.03.19,0,.19,0,.02-.01-.17,0-.42.11-.07.03-.45-.4-.86-.8-.39-.4-1.55-1.89-3.06-3.84-2.21-2.84-4.39-6-4.49-7.05-.07-.65.23-.85.63-.84,1.84.05,2.95-.71,4.52-2.43.43-.47.96-1.16,1.62-.74,1.99,1.37,3.79.44,5.88,1.89,1.47,1.11,2.81,1.95,3.6,3.27.68,1.16,1.07,2.41,1.22,3.72.14,1.31.03,2.73-.5,4.12-.4,1.1-2.15,1.9-4.76.34-1.19-.7-3.52-3.09-4.28-3.34-1.02-.41-1.92-.21-2.49.18-.47.36-.29.87-.3,1.23-.08,0-.15,0-.22,0Z"/><path d="m439.76,56.49c-1.12.13-2.18.04-3.14-.1-.51-.07-1-.21-1.46-.07-1.21.36-2.56.6-4.03.5-1.45-.08-3.07-.59-4.35-1.46-1.57-1.07-2.75-2.52-3.52-4.12-.77-1.6-1.16-3.38-1.15-5.25,0-.57.61-1.13,1.24-1.57.62-.43,2.54-.35,4.96.13,1.76.35,3.55.85,5.03,1.22.15.04.29.07.4.1.02,0,.04,0,.05,0,.06.01.11.01.19.02.31.02.56-.1.45-.05-.02.01-.07.04-.11.08-.08.06-.17.15-.25.25-.03.04-.08.11-.1.14,0,.01-.04.07-.03.05l.03-.07c.07-.15.12-.37.12-.51,0-.28-.05-.11.15.2-.16-.24.55.99,2.88,2.78,1.09.85,3.65,2.97,3.9,3.78.39,1.13.32,2.1.02,2.82-.25.61-.89.68-1.37.94.03.07.07.13.1.2Z"/><path d="m396.36,300.15c.21.36.36.76.41,1.16.02.21.05.45-.14.52-.26.09-.63.31-.93.62-.31.29-.62.79-.81,1.21-.39.9-.43,1.64-.32,2.12.06.3.17.53.32.76.06.09.22.26.24.28.05.05.08.08.11.1.11.07-.06-.11-.56-.34-.14-.07-.13-.66-.14-1.27,0-.59.49-2.41,1.23-4.77,1.09-3.43,2.52-7,3.19-7.72.43-.46.7-.36.89-.05.91,1.44,2.32,1.78,4.86,2.15.35.05.75.09,1.09.23.34.15.67.44.72.87.19,1.4.64,2.31,1.13,3.33.47.99.95,2.14.81,3.46-.12.97-.19,1.95-.43,2.97-.23,1.02-.65,2.04-1.25,2.82-1.11,1.44-2.53,2.28-3.68,2.68-1.19.42-2.18.48-3.06.5-.7,0-1.56-.95-2.62-3.75-.5-1.3-1.2-4.53-1.21-5.29,0-1.08,0-1.79.02-2.23,0-.36.17-.13.21-.14-.03-.07-.05-.14-.08-.21Z"/><path d="m354.23,454.18c-1.49-.68-2.69-1.61-3.72-2.56-.54-.52-1.01-1.06-1.6-1.43-1.61-.96-3.18-2.25-4.38-4.14-.59-.95-1.09-2.02-1.39-3.2-.3-1.24-.41-2.28-.35-3.37.11-2.71,1.12-5.05,2.21-6.76,1.11-1.75,2.33-3,3.48-4.09.35-.33,1.08-.24,1.77-.1.68.13,2.11,1.39,3.82,3.16,2.49,2.59,4.83,5.65,5.16,6.57.21.59.03.75-.28.75-1.43-.04-2,.99-1.09,1.97.24.27.8.53.3.31-.82-.31-1.25-.41-1.52-.44h-.15s0-.01,0-.01l-1.18.07h.03s.04,0,.04,0l.1-.02c.14-.03.33-.1.54-.21.1-.06.19-.12.29-.18.05-.03.09-.06.13-.1l-.05.05c-.34.37-.25,1.22.04,1.74.12.18.13,1.41,1.48,4.1.62,1.26,1.86,4.34,1.44,5.23-.54,1.26-1.51,2.11-2.54,2.54-.87.37-1.73.02-2.55-.11-.02.07-.03.14-.05.22Z"/><path d="m78.68,451.16c.47.18.91.41,1.27.58.18.09.39.19.36.09-.03-.32-.54-.22-.88-.1-.34.14-.76.54-.74,1.4,0,.52.2,1.23.6,1.86.38.61.89,1.06,1.33,1.32.9.5,1.02.3.62.25-.12-.02-.23-.59-.42-1.17-.17-.56-.28-2.44-.33-4.91-.08-3.6.13-7.44.66-8.33.33-.57.71-.55,1.07-.3.83.57,1.72.86,2.86,1.09,1.14.24,2.55.34,4.38.92.99.28,2.28.75,2.53,1.93.41,1.88.81,3.38,1.05,4.81.23,1.42.27,2.78-.25,3.9-.79,1.62-1.25,3.14-2.44,4.37-2,1.94-4.12,2.53-5.74,2.92-.67.15-1.7-.58-3.5-2.98-.84-1.11-2.39-4.04-2.54-4.8-.21-1.09-.26-1.83-.24-2.32.02-.41.32-.27.46-.36-.04-.06-.08-.12-.12-.19Z"/><path d="m41.85,161.66c-1.27-.66-2.28-1.52-3.13-2.39-.46-.46-.83-.97-1.36-1.26-1.41-.8-2.8-1.9-3.91-3.5-1.11-1.57-1.82-3.79-1.74-5.87.1-2.55,1.03-4.82,2.41-6.6,1.38-1.79,3.25-3.22,5.59-4.09.72-.26,1.64.07,2.43.51.78.42,1.36,2.3,1.59,4.75.18,1.79.16,3.65.21,5.17,0,.21.01.4.02.56,0,.02,0,.03,0,.05,0,.08.03.14.06.25.07.21.21.47.32.61.11.14.17.16.09.11-.05-.03-.13-.08-.24-.13-.17-.08-.4-.14-.6-.16-.06-.01-.2,0-.22,0-.01,0-.08,0-.06,0,.03,0,.06-.01.08-.02.17-.04.54-.23.74-.42.18-.16.23-.27.18-.18-.05.08-.15.37-.17.65,0,.13-.15,1.39.95,4.17.51,1.29,1.59,4.44,1.22,5.29-.47,1.21-1.32,2-2.21,2.4-.76.35-1.49,0-2.19-.13-.02.07-.03.14-.05.22Z"/></svg>