<svg id="visual" viewBox="0 0 900 450" width="900" height="450" xmlns="http://www.w3.org/2000/svg" xmlns:xlink="http://www.w3.org/1999/xlink" version="1.1"><path d="M0 176L13.7 205.3C27.3 234.7 54.7 293.3 82 287.7C109.3 282 136.7 212 163.8 211.5C191 211 218 280 245.2 291C272.3 302 299.7 255 327 215.7C354.3 176.3 381.7 144.7 409 156C436.3 167.3 463.7 221.7 491 236.7C518.3 251.7 545.7 227.3 573 230.8C600.3 234.3 627.7 265.7 654.8 255.7C682 245.7 709 194.3 736.2 175.8C763.3 157.3 790.7 171.7 818 183.5C845.3 195.3 872.7 204.7 886.3 209.3L900 214L900 451L886.3 451C872.7 451 845.3 451 818 451C790.7 451 763.3 451 736.2 451C709 451 682 451 654.8 451C627.7 451 600.3 451 573 451C545.7 451 518.3 451 491 451C463.7 451 436.3 451 409 451C381.7 451 354.3 451 327 451C299.7 451 272.3 451 245.2 451C218 451 191 451 163.8 451C136.7 451 109.3 451 82 451C54.7 451 27.3 451 13.7 451L0 451Z" fill="#5d00ff" stroke-linecap="round" stroke-linejoin="miter"></path></svg>